<mxfile host="Electron" modified="2024-09-08T16:20:34.665Z" agent="Mozilla/5.0 (X11; Linux x86_64) AppleWebKit/537.36 (KHTML, like Gecko) draw.io/21.6.5 Chrome/114.0.5735.243 Electron/25.3.1 Safari/537.36" etag="XVrVftNR7Zxx351iPgFX" version="21.6.5" type="device">
  <diagram name="Page-1" id="YnkxbTNzXD8JPdKUxbxC">
    <mxGraphModel dx="1184" dy="801" grid="1" gridSize="10" guides="1" tooltips="1" connect="1" arrows="1" fold="1" page="1" pageScale="1" pageWidth="827" pageHeight="1169" math="0" shadow="0">
      <root>
        <mxCell id="0" />
        <mxCell id="1" parent="0" />
        <mxCell id="MZgSjW2vvkXDpp1sro9O-45" value="" style="rounded=1;whiteSpace=wrap;html=1;dashed=1;" vertex="1" parent="1">
          <mxGeometry x="110" y="290" width="270" height="450" as="geometry" />
        </mxCell>
        <mxCell id="MZgSjW2vvkXDpp1sro9O-1" value="" style="rounded=1;whiteSpace=wrap;html=1;fillColor=#f5f5f5;fontColor=#333333;strokeColor=#666666;dashed=1;arcSize=11;" vertex="1" parent="1">
          <mxGeometry x="120" y="300" width="190" height="210" as="geometry" />
        </mxCell>
        <mxCell id="MZgSjW2vvkXDpp1sro9O-3" value="" style="rounded=1;whiteSpace=wrap;html=1;dashed=1;" vertex="1" parent="1">
          <mxGeometry x="130" y="410" width="110" height="90" as="geometry" />
        </mxCell>
        <mxCell id="MZgSjW2vvkXDpp1sro9O-4" value="+" style="rounded=0;whiteSpace=wrap;html=1;fillColor=#fff2cc;strokeColor=#d6b656;fontSize=31;" vertex="1" parent="1">
          <mxGeometry x="260" y="330" width="40" height="150" as="geometry" />
        </mxCell>
        <mxCell id="MZgSjW2vvkXDpp1sro9O-5" value="+" style="rounded=0;whiteSpace=wrap;html=1;fillColor=#fff2cc;strokeColor=#d6b656;fontSize=31;" vertex="1" parent="1">
          <mxGeometry x="200" y="420" width="30" height="70" as="geometry" />
        </mxCell>
        <mxCell id="MZgSjW2vvkXDpp1sro9O-7" value="" style="rounded=1;whiteSpace=wrap;html=1;dashed=1;fillColor=#f5f5f5;fontColor=#333333;strokeColor=#666666;" vertex="1" parent="1">
          <mxGeometry x="140" y="420" width="40" height="30" as="geometry" />
        </mxCell>
        <mxCell id="MZgSjW2vvkXDpp1sro9O-8" value="" style="rounded=1;whiteSpace=wrap;html=1;dashed=1;fillColor=#f5f5f5;fontColor=#333333;strokeColor=#666666;" vertex="1" parent="1">
          <mxGeometry x="140" y="460" width="40" height="30" as="geometry" />
        </mxCell>
        <mxCell id="MZgSjW2vvkXDpp1sro9O-19" value="" style="rounded=1;whiteSpace=wrap;html=1;dashed=1;" vertex="1" parent="1">
          <mxGeometry x="130" y="310" width="110" height="90" as="geometry" />
        </mxCell>
        <mxCell id="MZgSjW2vvkXDpp1sro9O-20" value="+" style="rounded=0;whiteSpace=wrap;html=1;fillColor=#fff2cc;strokeColor=#d6b656;fontSize=31;" vertex="1" parent="1">
          <mxGeometry x="200" y="320" width="30" height="70" as="geometry" />
        </mxCell>
        <mxCell id="MZgSjW2vvkXDpp1sro9O-21" value="" style="rounded=1;whiteSpace=wrap;html=1;dashed=1;fillColor=#f5f5f5;fontColor=#333333;strokeColor=#666666;" vertex="1" parent="1">
          <mxGeometry x="140" y="320" width="40" height="30" as="geometry" />
        </mxCell>
        <mxCell id="MZgSjW2vvkXDpp1sro9O-22" value="" style="rounded=1;whiteSpace=wrap;html=1;dashed=1;fillColor=#f5f5f5;fontColor=#333333;strokeColor=#666666;" vertex="1" parent="1">
          <mxGeometry x="140" y="360" width="40" height="30" as="geometry" />
        </mxCell>
        <mxCell id="MZgSjW2vvkXDpp1sro9O-23" value="" style="endArrow=none;html=1;rounded=0;" edge="1" parent="1">
          <mxGeometry width="50" height="50" relative="1" as="geometry">
            <mxPoint x="100" y="335" as="sourcePoint" />
            <mxPoint x="200" y="335" as="targetPoint" />
          </mxGeometry>
        </mxCell>
        <mxCell id="MZgSjW2vvkXDpp1sro9O-25" value="" style="endArrow=none;html=1;rounded=0;" edge="1" parent="1">
          <mxGeometry width="50" height="50" relative="1" as="geometry">
            <mxPoint x="230" y="355" as="sourcePoint" />
            <mxPoint x="260" y="355" as="targetPoint" />
          </mxGeometry>
        </mxCell>
        <mxCell id="MZgSjW2vvkXDpp1sro9O-26" value="" style="endArrow=none;html=1;rounded=0;" edge="1" parent="1">
          <mxGeometry width="50" height="50" relative="1" as="geometry">
            <mxPoint x="230" y="455" as="sourcePoint" />
            <mxPoint x="260" y="455" as="targetPoint" />
          </mxGeometry>
        </mxCell>
        <mxCell id="MZgSjW2vvkXDpp1sro9O-27" value="" style="endArrow=none;html=1;rounded=0;" edge="1" parent="1">
          <mxGeometry width="50" height="50" relative="1" as="geometry">
            <mxPoint x="300" y="406" as="sourcePoint" />
            <mxPoint x="330" y="406" as="targetPoint" />
          </mxGeometry>
        </mxCell>
        <mxCell id="MZgSjW2vvkXDpp1sro9O-46" value="+" style="rounded=0;whiteSpace=wrap;html=1;fillColor=#fff2cc;strokeColor=#d6b656;fontSize=31;" vertex="1" parent="1">
          <mxGeometry x="330" y="385" width="40" height="260" as="geometry" />
        </mxCell>
        <mxCell id="MZgSjW2vvkXDpp1sro9O-48" value="" style="endArrow=none;html=1;rounded=0;" edge="1" parent="1">
          <mxGeometry width="50" height="50" relative="1" as="geometry">
            <mxPoint x="100" y="375" as="sourcePoint" />
            <mxPoint x="200" y="375" as="targetPoint" />
          </mxGeometry>
        </mxCell>
        <mxCell id="MZgSjW2vvkXDpp1sro9O-49" value="" style="endArrow=none;html=1;rounded=0;" edge="1" parent="1">
          <mxGeometry width="50" height="50" relative="1" as="geometry">
            <mxPoint x="100" y="435" as="sourcePoint" />
            <mxPoint x="200" y="435" as="targetPoint" />
          </mxGeometry>
        </mxCell>
        <mxCell id="MZgSjW2vvkXDpp1sro9O-50" value="" style="endArrow=none;html=1;rounded=0;" edge="1" parent="1">
          <mxGeometry width="50" height="50" relative="1" as="geometry">
            <mxPoint x="100" y="475" as="sourcePoint" />
            <mxPoint x="200" y="475" as="targetPoint" />
          </mxGeometry>
        </mxCell>
        <mxCell id="MZgSjW2vvkXDpp1sro9O-51" value="" style="rounded=1;whiteSpace=wrap;html=1;fillColor=#f5f5f5;fontColor=#333333;strokeColor=#666666;dashed=1;arcSize=11;" vertex="1" parent="1">
          <mxGeometry x="120" y="520" width="190" height="210" as="geometry" />
        </mxCell>
        <mxCell id="MZgSjW2vvkXDpp1sro9O-52" value="" style="rounded=1;whiteSpace=wrap;html=1;dashed=1;" vertex="1" parent="1">
          <mxGeometry x="130" y="630" width="110" height="90" as="geometry" />
        </mxCell>
        <mxCell id="MZgSjW2vvkXDpp1sro9O-53" value="+" style="rounded=0;whiteSpace=wrap;html=1;fillColor=#fff2cc;strokeColor=#d6b656;fontSize=31;" vertex="1" parent="1">
          <mxGeometry x="260" y="550" width="40" height="150" as="geometry" />
        </mxCell>
        <mxCell id="MZgSjW2vvkXDpp1sro9O-54" value="+" style="rounded=0;whiteSpace=wrap;html=1;fillColor=#fff2cc;strokeColor=#d6b656;fontSize=31;" vertex="1" parent="1">
          <mxGeometry x="200" y="640" width="30" height="70" as="geometry" />
        </mxCell>
        <mxCell id="MZgSjW2vvkXDpp1sro9O-55" value="" style="rounded=1;whiteSpace=wrap;html=1;dashed=1;fillColor=#f5f5f5;fontColor=#333333;strokeColor=#666666;" vertex="1" parent="1">
          <mxGeometry x="140" y="640" width="40" height="30" as="geometry" />
        </mxCell>
        <mxCell id="MZgSjW2vvkXDpp1sro9O-56" value="" style="rounded=1;whiteSpace=wrap;html=1;dashed=1;fillColor=#f5f5f5;fontColor=#333333;strokeColor=#666666;" vertex="1" parent="1">
          <mxGeometry x="140" y="680" width="40" height="30" as="geometry" />
        </mxCell>
        <mxCell id="MZgSjW2vvkXDpp1sro9O-57" value="" style="rounded=1;whiteSpace=wrap;html=1;dashed=1;" vertex="1" parent="1">
          <mxGeometry x="130" y="530" width="110" height="90" as="geometry" />
        </mxCell>
        <mxCell id="MZgSjW2vvkXDpp1sro9O-58" value="+" style="rounded=0;whiteSpace=wrap;html=1;fillColor=#fff2cc;strokeColor=#d6b656;fontSize=31;" vertex="1" parent="1">
          <mxGeometry x="200" y="540" width="30" height="70" as="geometry" />
        </mxCell>
        <mxCell id="MZgSjW2vvkXDpp1sro9O-59" value="" style="rounded=1;whiteSpace=wrap;html=1;dashed=1;fillColor=#f5f5f5;fontColor=#333333;strokeColor=#666666;" vertex="1" parent="1">
          <mxGeometry x="140" y="540" width="40" height="30" as="geometry" />
        </mxCell>
        <mxCell id="MZgSjW2vvkXDpp1sro9O-60" value="" style="rounded=1;whiteSpace=wrap;html=1;dashed=1;fillColor=#f5f5f5;fontColor=#333333;strokeColor=#666666;" vertex="1" parent="1">
          <mxGeometry x="140" y="580" width="40" height="30" as="geometry" />
        </mxCell>
        <mxCell id="MZgSjW2vvkXDpp1sro9O-61" value="" style="endArrow=none;html=1;rounded=0;" edge="1" parent="1">
          <mxGeometry width="50" height="50" relative="1" as="geometry">
            <mxPoint x="100" y="555" as="sourcePoint" />
            <mxPoint x="200" y="555" as="targetPoint" />
          </mxGeometry>
        </mxCell>
        <mxCell id="MZgSjW2vvkXDpp1sro9O-62" value="" style="endArrow=none;html=1;rounded=0;" edge="1" parent="1">
          <mxGeometry width="50" height="50" relative="1" as="geometry">
            <mxPoint x="230" y="575" as="sourcePoint" />
            <mxPoint x="260" y="575" as="targetPoint" />
          </mxGeometry>
        </mxCell>
        <mxCell id="MZgSjW2vvkXDpp1sro9O-63" value="" style="endArrow=none;html=1;rounded=0;" edge="1" parent="1">
          <mxGeometry width="50" height="50" relative="1" as="geometry">
            <mxPoint x="230" y="675" as="sourcePoint" />
            <mxPoint x="260" y="675" as="targetPoint" />
          </mxGeometry>
        </mxCell>
        <mxCell id="MZgSjW2vvkXDpp1sro9O-64" value="" style="endArrow=none;html=1;rounded=0;" edge="1" parent="1">
          <mxGeometry width="50" height="50" relative="1" as="geometry">
            <mxPoint x="300" y="626" as="sourcePoint" />
            <mxPoint x="330" y="626" as="targetPoint" />
          </mxGeometry>
        </mxCell>
        <mxCell id="MZgSjW2vvkXDpp1sro9O-65" value="" style="endArrow=none;html=1;rounded=0;" edge="1" parent="1">
          <mxGeometry width="50" height="50" relative="1" as="geometry">
            <mxPoint x="100" y="595" as="sourcePoint" />
            <mxPoint x="200" y="595" as="targetPoint" />
          </mxGeometry>
        </mxCell>
        <mxCell id="MZgSjW2vvkXDpp1sro9O-66" value="" style="endArrow=none;html=1;rounded=0;" edge="1" parent="1">
          <mxGeometry width="50" height="50" relative="1" as="geometry">
            <mxPoint x="100" y="655" as="sourcePoint" />
            <mxPoint x="200" y="655" as="targetPoint" />
          </mxGeometry>
        </mxCell>
        <mxCell id="MZgSjW2vvkXDpp1sro9O-67" value="" style="endArrow=none;html=1;rounded=0;" edge="1" parent="1">
          <mxGeometry width="50" height="50" relative="1" as="geometry">
            <mxPoint x="100" y="695" as="sourcePoint" />
            <mxPoint x="200" y="695" as="targetPoint" />
          </mxGeometry>
        </mxCell>
        <mxCell id="MZgSjW2vvkXDpp1sro9O-68" value="" style="endArrow=none;html=1;rounded=0;" edge="1" parent="1">
          <mxGeometry width="50" height="50" relative="1" as="geometry">
            <mxPoint x="370" y="516" as="sourcePoint" />
            <mxPoint x="400" y="516" as="targetPoint" />
          </mxGeometry>
        </mxCell>
      </root>
    </mxGraphModel>
  </diagram>
</mxfile>
